<svg width="133" height="34" viewBox="0 0 133 34" fill="none" xmlns="http://www.w3.org/2000/svg">
<path d="M1.568 26C1.33333 25.744 1.152 25.4347 1.024 25.072C0.896 24.7093 0.832 24.336 0.832 23.952C1.55733 23.952 2.06933 23.8347 2.368 23.6C2.66667 23.3653 2.816 22.9493 2.816 22.352V7.312C2.816 6.71467 2.66667 6.29867 2.368 6.064C2.06933 5.808 1.55733 5.68 0.832 5.68C0.832 5.296 0.896 4.93333 1.024 4.592C1.152 4.22933 1.33333 3.92 1.568 3.664H9.472C9.94133 4.15467 10.176 4.82667 10.176 5.68C9.45067 5.68 8.91733 5.808 8.576 6.064C8.23467 6.32 8.064 6.736 8.064 7.312V23.28H9.248C10.8053 23.28 11.9573 22.768 12.704 21.744C13.472 20.72 13.856 19.28 13.856 17.424H16.096C16.4587 17.7013 16.7467 18.2987 16.96 19.216C17.1733 20.1333 17.28 21.0293 17.28 21.904C17.28 23.248 17.0453 24.272 16.576 24.976C16.1067 25.6587 15.3387 26 14.272 26H1.568ZM18.8915 21.488C18.8915 20.0587 19.3608 18.928 20.2995 18.096C21.2382 17.264 22.6248 16.848 24.4595 16.848C25.0995 16.848 25.7502 16.912 26.4115 17.04C27.0942 17.168 27.6488 17.3387 28.0755 17.552V13.296C28.0755 12.4427 27.8622 11.8347 27.4355 11.472C27.0088 11.088 26.4328 10.896 25.7075 10.896C25.0035 10.896 24.4275 11.0667 23.9795 11.408C24.3848 11.536 24.6835 11.76 24.8755 12.08C25.0888 12.3787 25.1955 12.72 25.1955 13.104C25.1955 13.7867 24.9502 14.3413 24.4595 14.768C23.9688 15.1947 23.3502 15.408 22.6035 15.408C21.7928 15.408 21.1422 15.1733 20.6515 14.704C20.1608 14.2347 19.9155 13.6267 19.9155 12.88C19.9155 12.1333 20.1715 11.4293 20.6835 10.768C21.1955 10.1067 21.9742 9.57333 23.0195 9.168C24.0862 8.76267 25.3982 8.56 26.9555 8.56C29.0675 8.56 30.6675 8.99733 31.7555 9.872C32.8435 10.7253 33.3875 11.984 33.3875 13.648V22.128C33.3875 23.152 33.8782 23.7707 34.8595 23.984V25.008C34.5822 25.392 34.1235 25.6907 33.4835 25.904C32.8435 26.1173 32.1928 26.224 31.5315 26.224C30.0808 26.224 29.0568 25.7227 28.4595 24.72C27.9688 25.1467 27.3715 25.5093 26.6675 25.808C25.9635 26.0853 25.1635 26.224 24.2675 26.224C22.6675 26.224 21.3662 25.7867 20.3635 24.912C19.3822 24.016 18.8915 22.8747 18.8915 21.488ZM28.0755 20.016C27.8408 19.8667 27.5528 19.7387 27.2115 19.632C26.8915 19.5253 26.5822 19.472 26.2835 19.472C25.6862 19.472 25.1955 19.664 24.8115 20.048C24.4275 20.4107 24.2355 20.944 24.2355 21.648C24.2355 22.224 24.4275 22.704 24.8115 23.088C25.1955 23.4507 25.7075 23.632 26.3475 23.632C26.6675 23.632 26.9768 23.5893 27.2755 23.504C27.5955 23.3973 27.8622 23.2693 28.0755 23.12V20.016ZM44.567 3.376C44.567 4.29333 44.279 5.02933 43.703 5.584C43.1483 6.11733 42.4017 6.384 41.463 6.384C40.5457 6.384 39.8097 6.11733 39.255 5.584C38.7217 5.02933 38.455 4.29333 38.455 3.376C38.455 2.48 38.7323 1.75467 39.287 1.2C39.863 0.645332 40.6097 0.367998 41.527 0.367998C42.4443 0.367998 43.1803 0.645332 43.735 1.2C44.2897 1.75467 44.567 2.48 44.567 3.376ZM43.959 22.544C43.959 23.1627 44.1083 23.6107 44.407 23.888C44.727 24.144 45.207 24.272 45.847 24.272C45.847 24.9333 45.6017 25.5093 45.111 26H37.879C37.3883 25.5093 37.143 24.9333 37.143 24.272C37.783 24.272 38.2417 24.144 38.519 23.888C38.8177 23.6107 38.967 23.152 38.967 22.512V13.232C38.967 12.6347 38.8177 12.208 38.519 11.952C38.2417 11.696 37.687 11.568 36.855 11.568V10.16C37.367 9.84 38.231 9.50933 39.447 9.168C40.6843 8.80533 41.7297 8.624 42.583 8.624C43.0737 8.624 43.4257 8.74133 43.639 8.976C43.8523 9.18933 43.959 9.56267 43.959 10.096V22.544ZM54.7358 26.32C53.6904 26.32 52.6451 26.1707 51.5998 25.872C50.5758 25.552 49.7331 25.104 49.0718 24.528C48.4104 23.952 48.0798 23.2693 48.0798 22.48C48.0798 21.7333 48.2931 21.136 48.7198 20.688C49.1464 20.2187 49.6904 19.984 50.3518 19.984C50.9491 19.984 51.4504 20.176 51.8558 20.56C52.2824 20.944 52.4958 21.4453 52.4958 22.064C52.4958 22.3413 52.4531 22.5867 52.3678 22.8C52.3038 22.992 52.1758 23.2053 51.9838 23.44C52.1544 23.6107 52.4744 23.7493 52.9438 23.856C53.4131 23.9413 53.9144 23.984 54.4478 23.984C55.1731 23.984 55.7384 23.856 56.1438 23.6C56.5704 23.3227 56.7838 22.9707 56.7838 22.544C56.7838 21.968 56.5171 21.4773 55.9838 21.072C55.4504 20.6453 54.5971 20.1227 53.4238 19.504C52.2291 18.864 51.3224 18.3413 50.7038 17.936C50.0851 17.5093 49.5304 16.944 49.0398 16.24C48.5704 15.5147 48.3358 14.6293 48.3358 13.584C48.3358 12.1333 48.9331 10.96 50.1278 10.064C51.3224 9.168 52.9758 8.72 55.0878 8.72C57.1571 8.72 58.6931 9.09333 59.6958 9.84C60.7198 10.5653 61.2318 11.44 61.2318 12.464C61.2318 13.104 61.0184 13.6267 60.5918 14.032C60.1864 14.4373 59.6851 14.64 59.0878 14.64C58.5331 14.64 58.0531 14.48 57.6478 14.16C57.2638 13.8187 57.0718 13.3813 57.0718 12.848C57.0718 12.5707 57.1144 12.2933 57.1998 12.016C57.2851 11.7173 57.4024 11.472 57.5518 11.28C57.1251 10.9387 56.4851 10.768 55.6318 10.768C54.9491 10.768 54.4158 10.928 54.0318 11.248C53.6478 11.568 53.4558 11.9733 53.4558 12.464C53.4558 13.1253 53.7224 13.6693 54.2558 14.096C54.7891 14.5227 55.6424 15.0347 56.8158 15.632C57.9251 16.208 58.7998 16.7093 59.4398 17.136C60.0798 17.5627 60.6344 18.128 61.1038 18.832C61.5731 19.536 61.8078 20.4 61.8078 21.424C61.8078 23.088 61.1251 24.3253 59.7598 25.136C58.4158 25.9253 56.7411 26.32 54.7358 26.32Z" fill="#F9F5FF"/>
<path d="M82.6993 19.248C82.6993 19.952 82.5286 21.2107 82.1873 23.024C81.8459 24.816 81.5366 25.9787 81.2593 26.512C80.9179 26.4267 80.4699 26.256 79.9153 26H65.0993C64.6086 25.36 64.3633 24.688 64.3633 23.984C65.0886 23.984 65.6219 23.856 65.9633 23.6C66.3046 23.344 66.4753 22.9173 66.4753 22.32V7.312C66.4753 6.736 66.3046 6.32 65.9633 6.064C65.6433 5.808 65.1206 5.68 64.3953 5.68C64.3953 4.976 64.6406 4.304 65.1313 3.664H77.5473C77.9099 3.49333 78.3259 3.36533 78.7953 3.28C79.2859 3.17333 79.7339 3.12 80.1393 3.12C80.4593 3.73867 80.8006 4.592 81.1632 5.68C81.5473 6.768 81.7393 7.55733 81.7393 8.048C81.4833 8.28267 81.0459 8.528 80.4272 8.784C79.8086 9.04 79.2753 9.21067 78.8273 9.296C78.5499 8.50667 78.1126 7.824 77.5153 7.248C76.9179 6.672 76.2246 6.384 75.4353 6.384H71.8193V13.136H74.1233C75.5099 13.136 76.2033 12.3573 76.2033 10.8C77.1633 10.8 78.0273 11.024 78.7953 11.472V17.424C78.4539 17.6373 78.0593 17.808 77.6113 17.936C77.1633 18.0427 76.7046 18.096 76.2353 18.096C76.2353 17.2853 76.0433 16.6773 75.6593 16.272C75.2753 15.8667 74.7739 15.664 74.1553 15.664H71.8193V23.184H75.6913C76.5873 23.184 77.3659 22.8107 78.0273 22.064C78.6886 21.296 79.1046 20.3573 79.2753 19.248H82.6993ZM92.4108 3.376C92.4108 4.29333 92.1228 5.02933 91.5468 5.584C90.9921 6.11733 90.2454 6.384 89.3068 6.384C88.3894 6.384 87.6534 6.11733 87.0988 5.584C86.5654 5.02933 86.2988 4.29333 86.2988 3.376C86.2988 2.48 86.5761 1.75467 87.1308 1.2C87.7068 0.645332 88.4534 0.367998 89.3708 0.367998C90.2881 0.367998 91.0241 0.645332 91.5788 1.2C92.1334 1.75467 92.4108 2.48 92.4108 3.376ZM91.8028 22.544C91.8028 23.1627 91.9521 23.6107 92.2508 23.888C92.5708 24.144 93.0508 24.272 93.6908 24.272C93.6908 24.9333 93.4454 25.5093 92.9548 26H85.7228C85.2321 25.5093 84.9868 24.9333 84.9868 24.272C85.6268 24.272 86.0854 24.144 86.3628 23.888C86.6614 23.6107 86.8108 23.152 86.8108 22.512V13.232C86.8108 12.6347 86.6614 12.208 86.3628 11.952C86.0854 11.696 85.5308 11.568 84.6988 11.568V10.16C85.2108 9.84 86.0748 9.50933 87.2908 9.168C88.5281 8.80533 89.5734 8.624 90.4268 8.624C90.9174 8.624 91.2694 8.74133 91.4828 8.976C91.6961 9.18933 91.8028 9.56267 91.8028 10.096V22.544ZM114.132 25.136C113.812 25.456 113.236 25.712 112.404 25.904C111.593 26.096 110.814 26.192 110.068 26.192C109.15 26.192 108.468 26.0213 108.02 25.68C107.593 25.3387 107.38 24.7947 107.38 24.048V14.064C107.38 13.232 107.198 12.6347 106.836 12.272C106.473 11.9093 105.993 11.728 105.396 11.728C104.521 11.728 103.785 12.08 103.188 12.784V22.544C103.188 23.1627 103.316 23.6107 103.572 23.888C103.849 24.1653 104.308 24.304 104.948 24.304C104.948 24.944 104.702 25.5093 104.212 26H96.9475C96.4355 25.488 96.1795 24.9227 96.1795 24.304C96.8195 24.304 97.2782 24.1653 97.5555 23.888C97.8328 23.6107 97.9715 23.1627 97.9715 22.544V13.2C97.9715 12.624 97.8115 12.2187 97.4915 11.984C97.1715 11.728 96.6168 11.6 95.8275 11.6V10.16C96.5102 9.776 97.4702 9.424 98.7075 9.104C99.9662 8.784 100.916 8.624 101.556 8.624C102.046 8.624 102.42 8.784 102.676 9.104C102.953 9.40267 103.113 9.97867 103.156 10.832C103.71 10.1493 104.404 9.616 105.236 9.232C106.068 8.82667 107.006 8.624 108.052 8.624C109.588 8.624 110.718 9.01867 111.444 9.808C112.19 10.576 112.564 11.8453 112.564 13.616V22.352C112.564 23.3973 113.076 24.016 114.1 24.208L114.132 25.136ZM124.39 22.192C127.142 22.384 129.19 22.8853 130.534 23.696C131.899 24.4853 132.582 25.6587 132.582 27.216C132.582 28.304 132.177 29.296 131.366 30.192C130.555 31.1093 129.478 31.824 128.134 32.336C126.811 32.8693 125.393 33.136 123.878 33.136C121.339 33.136 119.441 32.6773 118.182 31.76C116.923 30.864 116.294 29.6587 116.294 28.144C116.294 27.3547 116.55 26.64 117.062 26C117.595 25.3387 118.353 24.848 119.334 24.528C118.907 24.2293 118.619 23.8773 118.47 23.472C118.342 23.0667 118.278 22.5653 118.278 21.968C118.278 21.584 118.427 21.2 118.726 20.816C119.025 20.4107 119.441 20.112 119.974 19.92C118.971 19.3867 118.182 18.6507 117.606 17.712C117.051 16.7733 116.774 15.76 116.774 14.672C116.774 13.5627 117.041 12.5707 117.574 11.696C118.129 10.8 118.929 10.096 119.974 9.584C121.041 9.05067 122.331 8.784 123.846 8.784H123.878C124.646 8.784 125.307 8.83733 125.862 8.944C127.867 8.944 129.243 8.92267 129.99 8.88C130.758 8.816 131.494 8.73067 132.198 8.624C132.411 8.624 132.571 8.77333 132.678 9.072C132.806 9.34933 132.87 9.648 132.87 9.968C132.87 10.928 132.454 11.408 131.622 11.408C131.43 11.408 130.843 11.216 129.862 10.832C129.691 10.7467 129.435 10.64 129.094 10.512C129.798 11.088 130.342 11.7493 130.726 12.496C131.11 13.2213 131.302 13.9253 131.302 14.608C131.302 16.592 130.619 18.1173 129.254 19.184C127.91 20.2293 126.022 20.752 123.59 20.752C122.993 20.752 122.321 20.6773 121.574 20.528V20.624C121.574 21.136 121.777 21.5093 122.182 21.744C122.587 21.9573 123.323 22.1067 124.39 22.192ZM124.134 10.896C123.451 10.896 122.961 11.248 122.662 11.952C122.385 12.656 122.246 13.68 122.246 15.024C122.246 17.4347 122.875 18.64 124.134 18.64C124.817 18.64 125.307 18.2773 125.606 17.552C125.905 16.8267 126.054 15.7173 126.054 14.224C126.054 13.0507 125.894 12.208 125.574 11.696C125.254 11.1627 124.774 10.896 124.134 10.896ZM124.934 30.512C125.915 30.512 126.641 30.2773 127.11 29.808C127.579 29.3387 127.814 28.752 127.814 28.048C127.814 27.408 127.419 26.928 126.63 26.608C125.862 26.3093 124.646 26.0213 122.982 25.744L121.542 25.456C121.265 25.9253 121.126 26.544 121.126 27.312C121.126 28.2933 121.425 29.072 122.022 29.648C122.619 30.224 123.59 30.512 124.934 30.512Z" fill="#CFACFF"/>
</svg>
